<svg width="500" height="22" viewBox="0 0 586 22" fill="none" xmlns="http://www.w3.org/2000/svg">
<path d="M2.002 15.5V7.016L0.42 7.366V6.554L2.394 5.7H3.192V15.5H2.002ZM5.59661 15.57C5.36328 15.57 5.16728 15.4953 5.00861 15.346C4.85928 15.1873 4.78461 14.996 4.78461 14.772C4.78461 14.548 4.85928 14.3613 5.00861 14.212C5.16728 14.0533 5.36328 13.974 5.59661 13.974C5.82061 13.974 6.00728 14.0533 6.15661 14.212C6.31528 14.3613 6.39461 14.548 6.39461 14.772C6.39461 14.996 6.31528 15.1873 6.15661 15.346C6.00728 15.4953 5.82061 15.57 5.59661 15.57ZM5.59661 9.984C5.36328 9.984 5.16728 9.90933 5.00861 9.76C4.85928 9.60133 4.78461 9.41 4.78461 9.186C4.78461 8.962 4.85928 8.77533 5.00861 8.626C5.16728 8.46733 5.36328 8.388 5.59661 8.388C5.82061 8.388 6.00728 8.46733 6.15661 8.626C6.31528 8.77533 6.39461 8.962 6.39461 9.186C6.39461 9.41 6.31528 9.60133 6.15661 9.76C6.00728 9.90933 5.82061 9.984 5.59661 9.984ZM11.3817 15.668C10.7097 15.668 10.1263 15.5467 9.63167 15.304C9.13701 15.0613 8.74034 14.73 8.44167 14.31C8.15234 13.8807 7.97501 13.3953 7.90967 12.854H9.05767C9.16967 13.3953 9.43101 13.834 9.84167 14.17C10.2523 14.4967 10.7703 14.66 11.3957 14.66C11.8623 14.66 12.2637 14.5527 12.5997 14.338C12.9357 14.114 13.1923 13.8153 13.3697 13.442C13.5563 13.0687 13.6497 12.6533 13.6497 12.196C13.6497 11.468 13.4443 10.88 13.0337 10.432C12.623 9.984 12.091 9.76 11.4377 9.76C10.8963 9.76 10.4343 9.88133 10.0517 10.124C9.66901 10.3667 9.38901 10.684 9.21167 11.076H8.09167L8.93167 5.7H14.0697V6.722H9.84167L9.26767 9.704C9.49167 9.43333 9.79967 9.20933 10.1917 9.032C10.593 8.85467 11.0503 8.766 11.5637 8.766C12.2077 8.766 12.7677 8.91533 13.2437 9.214C13.729 9.51267 14.107 9.91867 14.3777 10.432C14.6483 10.9453 14.7837 11.5287 14.7837 12.182C14.7837 12.8073 14.6483 13.386 14.3777 13.918C14.1163 14.45 13.729 14.8747 13.2157 15.192C12.7117 15.5093 12.1003 15.668 11.3817 15.668ZM20.4439 15.668C19.5759 15.668 18.8246 15.458 18.1899 15.038C17.5646 14.6087 17.0839 14.016 16.7479 13.26C16.4119 12.4947 16.2439 11.608 16.2439 10.6C16.2439 9.592 16.4119 8.71 16.7479 7.954C17.0839 7.18867 17.5646 6.596 18.1899 6.176C18.8246 5.74667 19.5759 5.532 20.4439 5.532C21.3119 5.532 22.0586 5.74667 22.6839 6.176C23.3093 6.596 23.7899 7.18867 24.1259 7.954C24.4619 8.71 24.6299 9.592 24.6299 10.6C24.6299 11.608 24.4619 12.4947 24.1259 13.26C23.7899 14.016 23.3093 14.6087 22.6839 15.038C22.0586 15.458 21.3119 15.668 20.4439 15.668ZM20.4439 14.632C21.0133 14.632 21.5219 14.4733 21.9699 14.156C22.4273 13.8293 22.7819 13.3673 23.0339 12.77C23.2953 12.1633 23.4259 11.44 23.4259 10.6C23.4259 9.76 23.2953 9.04133 23.0339 8.444C22.7819 7.84667 22.4273 7.38933 21.9699 7.072C21.5219 6.74533 21.0133 6.582 20.4439 6.582C19.8653 6.582 19.3519 6.74533 18.9039 7.072C18.4559 7.38933 18.1013 7.84667 17.8399 8.444C17.5786 9.04133 17.4479 9.76 17.4479 10.6C17.4479 11.44 17.5786 12.1633 17.8399 12.77C18.1013 13.3673 18.4559 13.8293 18.9039 14.156C19.3519 14.4733 19.8653 14.632 20.4439 14.632Z" fill="white"/>
<rect x="41" y="8.5" width="499" height="5" rx="2.5" fill="#333333"/>
<rect x="41" y="8.5" width="250" height="5" rx="2.5" fill="#2BD268"/>
<path d="M559.088 15.668C558.463 15.668 557.898 15.556 557.394 15.332C556.89 15.0987 556.484 14.7533 556.176 14.296C555.877 13.8387 555.719 13.2693 555.7 12.588H556.89C556.899 13.148 557.095 13.6333 557.478 14.044C557.861 14.4453 558.397 14.646 559.088 14.646C559.779 14.646 560.297 14.4547 560.642 14.072C560.997 13.6893 561.174 13.2273 561.174 12.686C561.174 12.2287 561.062 11.8553 560.838 11.566C560.623 11.2767 560.329 11.062 559.956 10.922C559.592 10.782 559.191 10.712 558.752 10.712H558.024V9.718H558.752C559.387 9.718 559.881 9.57333 560.236 9.284C560.6 8.99467 560.782 8.58867 560.782 8.066C560.782 7.62733 560.637 7.268 560.348 6.988C560.068 6.69867 559.648 6.554 559.088 6.554C558.547 6.554 558.113 6.71733 557.786 7.044C557.459 7.36133 557.277 7.76267 557.24 8.248H556.05C556.078 7.716 556.218 7.24467 556.47 6.834C556.731 6.42333 557.086 6.106 557.534 5.882C557.982 5.64867 558.5 5.532 559.088 5.532C559.723 5.532 560.25 5.644 560.67 5.868C561.099 6.092 561.421 6.39067 561.636 6.764C561.86 7.13733 561.972 7.548 561.972 7.996C561.972 8.49067 561.837 8.94333 561.566 9.354C561.295 9.75533 560.889 10.026 560.348 10.166C560.927 10.2873 561.407 10.5627 561.79 10.992C562.173 11.4213 562.364 11.986 562.364 12.686C562.364 13.2273 562.238 13.7267 561.986 14.184C561.743 14.632 561.379 14.9913 560.894 15.262C560.409 15.5327 559.807 15.668 559.088 15.668ZM564.602 15.57C564.369 15.57 564.173 15.4953 564.014 15.346C563.865 15.1873 563.79 14.996 563.79 14.772C563.79 14.548 563.865 14.3613 564.014 14.212C564.173 14.0533 564.369 13.974 564.602 13.974C564.826 13.974 565.013 14.0533 565.162 14.212C565.321 14.3613 565.4 14.548 565.4 14.772C565.4 14.996 565.321 15.1873 565.162 15.346C565.013 15.4953 564.826 15.57 564.602 15.57ZM564.602 9.984C564.369 9.984 564.173 9.90933 564.014 9.76C563.865 9.60133 563.79 9.41 563.79 9.186C563.79 8.962 563.865 8.77533 564.014 8.626C564.173 8.46733 564.369 8.388 564.602 8.388C564.826 8.388 565.013 8.46733 565.162 8.626C565.321 8.77533 565.4 8.962 565.4 9.186C565.4 9.41 565.321 9.60133 565.162 9.76C565.013 9.90933 564.826 9.984 564.602 9.984ZM570.878 15.668C570.01 15.668 569.258 15.458 568.624 15.038C567.998 14.6087 567.518 14.016 567.182 13.26C566.846 12.4947 566.678 11.608 566.678 10.6C566.678 9.592 566.846 8.71 567.182 7.954C567.518 7.18867 567.998 6.596 568.624 6.176C569.258 5.74667 570.01 5.532 570.878 5.532C571.746 5.532 572.492 5.74667 573.118 6.176C573.743 6.596 574.224 7.18867 574.56 7.954C574.896 8.71 575.064 9.592 575.064 10.6C575.064 11.608 574.896 12.4947 574.56 13.26C574.224 14.016 573.743 14.6087 573.118 15.038C572.492 15.458 571.746 15.668 570.878 15.668ZM570.878 14.632C571.447 14.632 571.956 14.4733 572.404 14.156C572.861 13.8293 573.216 13.3673 573.468 12.77C573.729 12.1633 573.86 11.44 573.86 10.6C573.86 9.76 573.729 9.04133 573.468 8.444C573.216 7.84667 572.861 7.38933 572.404 7.072C571.956 6.74533 571.447 6.582 570.878 6.582C570.299 6.582 569.786 6.74533 569.338 7.072C568.89 7.38933 568.535 7.84667 568.274 8.444C568.012 9.04133 567.882 9.76 567.882 10.6C567.882 11.44 568.012 12.1633 568.274 12.77C568.535 13.3673 568.89 13.8293 569.338 14.156C569.786 14.4733 570.299 14.632 570.878 14.632ZM580.585 15.668C579.717 15.668 578.965 15.458 578.331 15.038C577.705 14.6087 577.225 14.016 576.889 13.26C576.553 12.4947 576.385 11.608 576.385 10.6C576.385 9.592 576.553 8.71 576.889 7.954C577.225 7.18867 577.705 6.596 578.331 6.176C578.965 5.74667 579.717 5.532 580.585 5.532C581.453 5.532 582.199 5.74667 582.825 6.176C583.45 6.596 583.931 7.18867 584.267 7.954C584.603 8.71 584.771 9.592 584.771 10.6C584.771 11.608 584.603 12.4947 584.267 13.26C583.931 14.016 583.45 14.6087 582.825 15.038C582.199 15.458 581.453 15.668 580.585 15.668ZM580.585 14.632C581.154 14.632 581.663 14.4733 582.111 14.156C582.568 13.8293 582.923 13.3673 583.175 12.77C583.436 12.1633 583.567 11.44 583.567 10.6C583.567 9.76 583.436 9.04133 583.175 8.444C582.923 7.84667 582.568 7.38933 582.111 7.072C581.663 6.74533 581.154 6.582 580.585 6.582C580.006 6.582 579.493 6.74533 579.045 7.072C578.597 7.38933 578.242 7.84667 577.981 8.444C577.719 9.04133 577.589 9.76 577.589 10.6C577.589 11.44 577.719 12.1633 577.981 12.77C578.242 13.3673 578.597 13.8293 579.045 14.156C579.493 14.4733 580.006 14.632 580.585 14.632Z" fill="white"/>
</svg>
