<svg width="22" height="23" viewBox="0 0 22 23" fill="none" xmlns="http://www.w3.org/2000/svg">
<path fill-rule="evenodd" clip-rule="evenodd" d="M0.5 5C0.5 3.80653 0.974106 2.66193 1.81802 1.81802C2.66193 0.974106 3.80653 0.5 5 0.5H20C20.2786 0.5 20.5516 0.577572 20.7886 0.724024C21.0256 0.870476 21.2171 1.08002 21.3416 1.32918C21.4662 1.57834 21.519 1.85727 21.4939 2.13471C21.4689 2.41215 21.3671 2.67715 21.2 2.9L17.375 8L21.2 13.1C21.3671 13.3229 21.4689 13.5878 21.4939 13.8653C21.519 14.1427 21.4662 14.4217 21.3416 14.6708C21.2171 14.92 21.0256 15.1295 20.7886 15.276C20.5516 15.4224 20.2786 15.5 20 15.5H5C4.60218 15.5 4.22064 15.658 3.93934 15.9393C3.65804 16.2206 3.5 16.6022 3.5 17V21.5C3.5 21.8978 3.34196 22.2794 3.06066 22.5607C2.77936 22.842 2.39782 23 2 23C1.60218 23 1.22064 22.842 0.93934 22.5607C0.658035 22.2794 0.5 21.8978 0.5 21.5V5Z" fill="white"/>
</svg>
