<svg width="27" height="28" viewBox="0 0 27 28" fill="none" xmlns="http://www.w3.org/2000/svg">
<path fill-rule="evenodd" clip-rule="evenodd" d="M13.5 27.5C20.9558 27.5 27 21.4558 27 14C27 6.54416 20.9558 0.5 13.5 0.5C6.04416 0.5 0 6.54416 0 14C0 21.4558 6.04416 27.5 13.5 27.5ZM13.9772 10.1794C16.7052 8.85514 18.0692 8.19301 18.7876 8.6837C18.9418 8.789 19.075 8.92216 19.1803 9.07633C19.6709 9.79474 19.0088 11.1587 17.6846 13.8867L17.6846 13.8867C16.9765 15.3454 16.6225 16.0747 16.011 16.2705C15.8744 16.3143 15.7321 16.3382 15.5887 16.3416C15.5035 16.3436 15.4195 16.3353 15.3352 16.3166C15.064 16.8297 14.3414 17.1805 13.0228 17.8206C10.2948 19.1449 8.93078 19.807 8.21237 19.3163C8.0582 19.211 7.92504 19.0778 7.81974 18.9237C7.32905 18.2053 7.99118 16.8413 9.31543 14.1133C10.0235 12.6546 10.3775 11.9253 10.989 11.7295C11.1256 11.6857 11.2679 11.6618 11.4113 11.6584C11.4965 11.6564 11.5805 11.6647 11.6648 11.6834C11.936 11.1703 12.6586 10.8195 13.9772 10.1794Z" fill="#040404"/>
</svg>
