<svg width="20" height="14" viewBox="0 0 20 14" fill="none" xmlns="http://www.w3.org/2000/svg">
<path fill-rule="evenodd" clip-rule="evenodd" d="M10.7451 9.92654C11.3866 10.6757 12.1051 11.3884 12.9475 11.9925C14.6981 13.2479 16.9202 13.9961 19.9892 13.8394L19.8872 11.842C17.2351 11.9774 15.4676 11.3386 14.113 10.3672C13.2952 9.78076 12.606 9.05961 11.9539 8.25163C11.9071 8.31701 11.86 8.38309 11.8125 8.44987L11.6622 8.66121C11.3777 9.06163 11.0739 9.48925 10.7451 9.92654ZM8.82627 4.06224C8.21105 3.32312 7.52879 2.61899 6.73621 2.02164C5.06165 0.75957 2.94499 0.00263572 0.0113525 0.160726L0.118974 2.15783C2.60525 2.02385 4.25242 2.65409 5.53246 3.61882C6.31073 4.20538 6.97061 4.92581 7.60704 5.73565C7.65068 5.67443 7.69473 5.61257 7.73922 5.55008L7.75789 5.52385C8.08512 5.06418 8.43796 4.56854 8.82627 4.06224Z" fill="#F3F4F6"/>
<path d="M0.0651855 12.8407C10.905 13.4249 8.49615 0.575025 19.9382 1.15931" stroke="#F3F4F6" stroke-width="2"/>
</svg>
