<svg width="22" height="24" viewBox="0 0 22 24" fill="none" xmlns="http://www.w3.org/2000/svg">
<path d="M11 0C8.61304 0 6.32385 0.948211 4.63602 2.63604C2.9482 4.32387 1.99999 6.61305 1.99999 9V14.379L0.939485 15.4395C0.729771 15.6493 0.586962 15.9165 0.52911 16.2075C0.471259 16.4984 0.500964 16.7999 0.614469 17.074C0.727974 17.348 0.920183 17.5823 1.1668 17.7471C1.41341 17.9119 1.70336 17.9999 1.99999 18H20C20.2966 17.9999 20.5866 17.9119 20.8332 17.7471C21.0798 17.5823 21.272 17.348 21.3855 17.074C21.499 16.7999 21.5287 16.4984 21.4709 16.2075C21.413 15.9165 21.2702 15.6493 21.0605 15.4395L20 14.379V9C20 6.61305 19.0518 4.32387 17.3639 2.63604C15.6761 0.948211 13.3869 0 11 0V0ZM11 24C9.80651 24 8.66192 23.5259 7.818 22.682C6.97409 21.8381 6.49998 20.6935 6.49998 19.5H15.5C15.5 20.6935 15.0259 21.8381 14.182 22.682C13.3381 23.5259 12.1935 24 11 24Z" fill="white"/>
</svg>
