<svg width="24" height="24" viewBox="0 0 24 24" fill="none" xmlns="http://www.w3.org/2000/svg">
<path fill-rule="evenodd" clip-rule="evenodd" d="M14.235 1.755C13.665 -0.585 10.335 -0.585 9.76499 1.755C9.67989 2.10662 9.51297 2.43319 9.27783 2.70812C9.04268 2.98305 8.74594 3.19857 8.41176 3.33716C8.07758 3.47574 7.7154 3.53346 7.3547 3.50563C6.99399 3.4778 6.64496 3.36521 6.33599 3.177C4.27799 1.923 1.92299 4.278 3.17699 6.336C3.98699 7.665 3.26849 9.399 1.75649 9.7665C-0.585009 10.335 -0.585009 13.6665 1.75649 14.2335C2.10821 14.3187 2.43483 14.4858 2.70976 14.7211C2.98469 14.9564 3.20015 15.2534 3.3386 15.5877C3.47705 15.9221 3.53458 16.2844 3.5065 16.6452C3.47841 17.006 3.36551 17.3551 3.17699 17.664C1.92299 19.722 4.27799 22.077 6.33599 20.823C6.6449 20.6345 6.99397 20.5216 7.35477 20.4935C7.71557 20.4654 8.0779 20.5229 8.41226 20.6614C8.74662 20.7998 9.04355 21.0153 9.27888 21.2902C9.51421 21.5652 9.68128 21.8918 9.76649 22.2435C10.335 24.585 13.6665 24.585 14.2335 22.2435C14.319 21.892 14.4862 21.5656 14.7216 21.2908C14.957 21.0161 15.2539 20.8008 15.5881 20.6624C15.9224 20.5239 16.2846 20.4664 16.6453 20.4943C17.006 20.5222 17.355 20.6348 17.664 20.823C19.722 22.077 22.077 19.722 20.823 17.664C20.6348 17.355 20.5222 17.006 20.4943 16.6453C20.4663 16.2846 20.5239 15.9224 20.6623 15.5881C20.8008 15.2539 21.0161 14.957 21.2908 14.7216C21.5656 14.4862 21.892 14.319 22.2435 14.2335C24.585 13.665 24.585 10.3335 22.2435 9.7665C21.8918 9.68129 21.5652 9.51422 21.2902 9.27889C21.0153 9.04356 20.7998 8.74663 20.6614 8.41227C20.5229 8.07791 20.4654 7.71558 20.4935 7.35478C20.5216 6.99398 20.6345 6.64491 20.823 6.336C22.077 4.278 19.722 1.923 17.664 3.177C17.3551 3.36552 17.006 3.47842 16.6452 3.5065C16.2844 3.53459 15.9221 3.47706 15.5877 3.33861C15.2534 3.20016 14.9564 2.9847 14.7211 2.70977C14.4858 2.43484 14.3187 2.10822 14.2335 1.7565L14.235 1.755ZM12 16.5C13.1935 16.5 14.3381 16.0259 15.182 15.182C16.0259 14.3381 16.5 13.1935 16.5 12C16.5 10.8065 16.0259 9.66193 15.182 8.81802C14.3381 7.97411 13.1935 7.5 12 7.5C10.8065 7.5 9.66192 7.97411 8.81801 8.81802C7.9741 9.66193 7.49999 10.8065 7.49999 12C7.49999 13.1935 7.9741 14.3381 8.81801 15.182C9.66192 16.0259 10.8065 16.5 12 16.5V16.5Z" fill="white"/>
</svg>
