<svg width="26" height="26" viewBox="0 0 26 26" fill="none" xmlns="http://www.w3.org/2000/svg">
<path fill-rule="evenodd" clip-rule="evenodd" d="M4.09 6.96498C5.02764 6.02762 6.29918 5.50105 7.625 5.50105C8.95082 5.50105 10.2224 6.02762 11.16 6.96498L12.625 8.42873L14.09 6.96498C14.5512 6.48743 15.103 6.10652 15.713 5.84447C16.323 5.58243 16.9791 5.4445 17.643 5.43873C18.3069 5.43296 18.9653 5.55947 19.5798 5.81087C20.1943 6.06227 20.7525 6.43354 21.222 6.903C21.6914 7.37247 22.0627 7.93073 22.3141 8.54521C22.5655 9.15969 22.692 9.81809 22.6863 10.482C22.6805 11.1459 22.5426 11.802 22.2805 12.412C22.0185 13.022 21.6375 13.5737 21.16 14.035L12.625 22.5712L4.09 14.035C3.15264 13.0973 2.62607 11.8258 2.62607 10.5C2.62607 9.17416 3.15264 7.90262 4.09 6.96498V6.96498Z" fill="#2BD268"/>
</svg>
